<svg version="1.1" id="Layer_1" xmlns="http://www.w3.org/2000/svg" xmlns:xlink="http://www.w3.org/1999/xlink" x="0px" y="0px"
	 width="100%" viewBox="0 0 1080 1080" enable-background="new 0 0 1080 1080" xml:space="preserve">
<path fill="#000000" opacity="1.000000" stroke="none" 
	d="
M599.000000,1081.000000 
	C399.356323,1081.000000 200.212631,1081.000000 1.068943,1081.000000 
	C1.045955,1080.856323 1.002823,1080.712646 1.002822,1080.568970 
	C1.000007,720.777161 1.000000,360.985382 1.000000,1.096787 
	C360.893890,1.096787 720.787842,1.096787 1080.840820,1.096787 
	C1080.840820,360.999939 1080.840820,720.999939 1080.840820,1081.000000 
	C920.461914,1081.000000 759.980957,1081.000000 599.000000,1081.000000 
M643.500000,141.046143 
	C633.797363,141.046143 624.094788,141.046143 614.392151,141.046143 
	C614.401672,141.734314 614.411133,142.422470 614.420654,143.110641 
	C673.164246,143.110641 731.907837,143.110641 791.126892,143.110641 
	C790.329712,142.448120 789.850037,141.699615 789.366394,141.697083 
	C741.077759,141.443771 692.788879,141.246872 643.500000,141.046143 
M585.798035,146.468338 
	C587.945740,145.333282 589.987183,143.629608 592.267456,143.203278 
	C595.302124,142.635925 598.522827,143.063217 601.663574,143.063217 
	C601.640930,142.449081 601.618225,141.834946 601.595581,141.220810 
	C594.995850,141.220810 588.391174,141.099701 581.802490,141.369461 
	C580.949829,141.404358 579.250183,143.906967 579.535706,144.500610 
	C580.661499,146.841705 582.422668,148.877243 583.948120,151.026154 
	C584.342346,150.817429 584.736633,150.608704 585.130920,150.399963 
	C585.325073,149.303665 585.519287,148.207352 585.798035,146.468338 
z"/>
<path fill="#0C0B10" opacity="1.000000" stroke="none" 
	d="
M644.000000,141.046326 
	C692.788879,141.246872 741.077759,141.443771 789.366394,141.697083 
	C789.850037,141.699615 790.329712,142.448120 791.126892,143.110641 
	C731.907837,143.110641 673.164246,143.110641 614.420654,143.110641 
	C614.411133,142.422470 614.401672,141.734314 614.392151,141.046143 
	C624.094788,141.046143 633.797363,141.046143 644.000000,141.046326 
z"/>
<path fill="#0C0B10" opacity="1.000000" stroke="none" 
	d="
M585.755737,146.789688 
	C585.519287,148.207352 585.325073,149.303665 585.130920,150.399963 
	C584.736633,150.608704 584.342346,150.817429 583.948120,151.026154 
	C582.422668,148.877243 580.661499,146.841705 579.535706,144.500610 
	C579.250183,143.906967 580.949829,141.404358 581.802490,141.369461 
	C588.391174,141.099701 594.995850,141.220810 601.595581,141.220810 
	C601.618225,141.834946 601.640930,142.449081 601.663574,143.063217 
	C598.522827,143.063217 595.302124,142.635925 592.267456,143.203278 
	C589.987183,143.629608 587.945740,145.333282 585.755737,146.789688 
z"/>
</svg>